<?xml version="1.0" standalone="no"?><svg xmlns="http://www.w3.org/2000/svg" viewBox="0 0 1440 320"><path fill="#f3f4f5" fill-opacity="1" d="M0,256L34.3,245.3C68.6,235,137,213,206,197.3C274.3,181,343,171,411,186.7C480,203,549,245,617,250.7C685.7,256,754,224,823,213.3C891.4,203,960,213,1029,229.3C1097.1,245,1166,267,1234,272C1302.9,277,1371,267,1406,261.3L1440,256L1440,320L1405.7,320C1371.4,320,1303,320,1234,320C1165.7,320,1097,320,1029,320C960,320,891,320,823,320C754.3,320,686,320,617,320C548.6,320,480,320,411,320C342.9,320,274,320,206,320C137.1,320,69,320,34,320L0,320Z"></path></svg>